<svg width="182" height="208" viewBox="0 0 182 208" fill="none" xmlns="http://www.w3.org/2000/svg">
<path d="M90.75 103.714C119.393 103.714 142.607 80.5001 142.607 51.8571C142.607 23.2142 119.393 0 90.75 0C62.107 0 38.8929 23.2142 38.8929 51.8571C38.8929 80.5001 62.107 103.714 90.75 103.714ZM127.05 116.679H120.284C111.29 120.811 101.283 123.161 90.75 123.161C80.2165 123.161 70.2502 120.811 61.2157 116.679H54.45C24.3891 116.679 0 141.068 0 171.129V187.982C0 198.718 8.71038 207.429 19.4464 207.429H162.054C172.79 207.429 181.5 198.718 181.5 187.982V171.129C181.5 141.068 157.111 116.679 127.05 116.679Z" fill="black"/>
</svg>
